<svg xmlns="http://www.w3.org/2000/svg" width="800" height="800" viewBox="0 0 800 800" fill="none">
  <defs>
    <pattern id="topography" width="200" height="200" patternUnits="userSpaceOnUse">
      <path d="M0 40c45-12 79 30 122 18 42-11 54-68 107-66 54 2 52 63 95 69 43 6 69-60 118-50 48 10 55 77 97 90 43 13 86-38 126-15" stroke="#d8cfc5" stroke-width="1" fill="none"/>
      <path d="M0 120c45-12 79 30 122 18 42-11 54-68 107-66 54 2 52 63 95 69 43 6 69-60 118-50 48 10 55 77 97 90 43 13 86-38 126-15" stroke="#e2d9cf" stroke-width="0.8" fill="none"/>
    </pattern>
  </defs>
  <rect width="800" height="800" fill="url(#topography)" opacity="0.35"/>
</svg>
